<svg class="svg-icon" style="width: 1em;height: 1em;vertical-align: middle;fill: currentColor;overflow: hidden;" viewBox="0 0 1024 1024" version="1.1" xmlns="http://www.w3.org/2000/svg"><path d="M317.62042 807.475342c-15.227677 90.434755-40.6262 175.677885-40.6262 175.677885h451.222045s-42.803333-84.944949-55.911063-174.207401" fill="#E3AD86" /><path d="M297.478877 804.08506c-14.843717 88.175928-39.817434 172.393804-40.0666 173.231163a20.447894 20.447894 0 0 0 3.190133 18.04202 20.43564 20.43564 0 0 0 16.383641 8.218371h451.222044a20.423386 20.423386 0 0 0 18.238084-29.613911c-0.408468-0.812851-41.488067-83.204876-53.938163-167.986437a20.427471 20.427471 0 1 0-40.417882 5.935036c13.438588 91.480432 56.070365 176.842018 57.879877 180.432449a20.423386 20.423386 0 0 1 18.238084-29.61391H276.981966a20.439725 20.439725 0 0 1 19.573773 26.26039c1.053847-3.529161 25.94587-87.493787 41.20214-178.112352a20.427471 20.427471 0 0 0-16.759431-23.539996 20.419302 20.419302 0 0 0-23.519571 16.747177z" fill="#6E6E96" /><path d="M661.211219 689.007447c-17.216915-82.461465-66.07374-169.0893-174.366704-244.316801h134.577862s79.210062 95.021847 146.496951 27.706365c67.311397-67.311397-27.722705-134.606455-27.722705-134.606454l-192.037017-192.020679V40.846773L456.127742 132.886806s-222.70069 58.419054-222.70069 288.055526c0 0-7.920189 63.345175 79.185554 193.981324 10.991867 16.489842 15.627975 42.84418 16.126306 74.10013" fill="#E3AD86" /><path d="M330.229819 445.589275c-22.894616-160.282736 159.302414-266.484345 159.302414-266.484346L531.208195 86.676852l-62.246397 32.448676S246.261108 177.544582 246.261108 407.181054c0 0-7.916105 63.34109 79.185554 193.981324 10.991867 16.485757 15.627975 42.840095 16.126306 74.096046l62.716135-0.004085c-1.968814-11.853733 31.974854-22.040919 28.061732-29.973362-102.745972-41.680047-102.121017-199.691703-102.121016-199.691702z m422.804945-121.559996L561.001831 132.0086V27.085495l-28.903176 28.91543-16.857464 148.134906 174.762918 172.720579s63.345175 46.994212 44.621014 65.718373c-12.135576 16.404064-26.750551-8.112169-41.974144-2.132202 26.485047 11.367657 38.812603 12.437842 68.47553-17.233253 67.295058-67.327736-8.091746-99.180049-8.091745-99.180049z" fill="#F0B78D" /><path d="M681.201629 684.832907c-21.068765-100.895613-82.543158-187.335554-182.715784-256.909862a20.427471 20.427471 0 0 1-11.649499 37.199156h134.577862a20.439725 20.439725 0 0 1-15.689246-7.348334c1.932052 2.295589 47.733539 56.503341 104.367589 59.068518 26.83633 1.213149 51.148329-8.880088 72.262026-29.99787 22.012326-22.020495 32.032039-46.610252 29.781382-73.111639-4.460468-52.606559-57.875792-90.990271-60.146873-92.603718 0.935391 0.665802 1.813597 1.409214 2.638702 2.226149L562.594855 131.330544a20.423386 20.423386 0 0 1 5.984052 14.443419V40.846773a20.431556 20.431556 0 0 0-34.866805-14.443419l-92.027779 92.044118a20.402963 20.402963 0 0 1 9.268133-5.314166c-2.446722 0.641294-60.396038 16.187576-118.712976 61.547918-54.395647 42.313172-119.235814 119.382863-119.235814 246.265193 0-0.849613 0.053101-1.695141 0.159302-2.536585-0.914968 7.246217-6.302657 74.725086 82.45738 207.848803 5.465298 8.197947 12.102899 25.790652 12.699262 63.087841a20.423386 20.423386 0 1 0 40.842688-0.653549c-0.612702-38.440898-7.009306-66.286143-19.557435-85.091997-80.231231-120.326423-75.925981-179.889187-75.87288-180.48555a14.909072 14.909072 0 0 0 0.118456-2.173048c0-211.443319 205.373489-267.766934 207.456674-268.310196a20.464233 20.464233 0 0 0 9.259963-5.314165l92.035948-92.040033a20.423386 20.423386 0 0 1-34.866805-14.443419v104.92719c0 5.416282 2.14854 10.611992 5.984052 14.443418l192.037018 192.020679c0.812851 0.816935 1.695141 1.560347 2.638701 2.226149 11.167508 7.993713 40.760995 34.923991 43.060668 62.830506 1.160048 14.104391-4.717802 27.408185-17.97258 40.667047-12.84631 12.850395-26.427862 18.756838-41.532998 18.070612-38.220325-1.727818-74.471836-43.98789-74.827203-44.412696a20.423386 20.423386 0 0 0-15.697415-7.348334h-134.590116a20.415217 20.415217 0 0 0-19.487996 14.316794 20.439725 20.439725 0 0 0 7.838496 22.886446c91.308876 63.414615 147.175007 141.37885 166.033962 231.719658a20.415217 20.415217 0 0 0 24.169035 15.81587 20.419302 20.419302 0 0 0 15.811786-24.164951z" fill="#6E6E96" /><path d="M501.569777 277.909188m-32.677419 0a32.677418 32.677418 0 1 0 65.354837 0 32.677418 32.677418 0 1 0-65.354837 0Z" fill="#6E6E96" /><path d="M756.216727 351.482395s35.593878 74.516768-21.591604 91.088303c-57.185482 16.559282-108.243948-56.164313-108.243948-56.164313h-117.434471c-111.307456 0-60.24899 60.24899-60.24899 60.24899s95.989916 90.581803 95.989916 242.37658c0 45.495135 2.360943 87.685767 6.38435 125.244375H317.207868l-5.212048 30.667757h242.866741c10.097322 71.51453 26.378846 121.678451 42.925873 138.221394h130.423746s-25.966293-58.508917-46.544898-138.221394h0.004085l-0.028593-0.089863c-13.479435-52.247107-24.622435-113.586706-24.622434-173.529345 0-102.51723-107.786464-208.633061-164.277551-225.15558l128.679588-1.454145C677.741907 522.389377 743.08449 490.161273 743.08449 490.161273c104.457452-62.687542 13.132237-138.678878 13.132237-138.678878z" fill="#6E6E96" opacity=".15" /><path d="M730.311704 729.176164c0 35.565285-26.117426 64.660441-58.03101 64.660441H308.609622c-31.909499 0-58.018756-29.095156-58.018756-64.660441 0-35.573454 26.113342-64.664526 58.018756-64.664526h363.666987c31.917668 0 58.035095 29.095156 58.035095 64.664526z" fill="#E3AD86" /><path d="M709.888318 729.176164c0 24.397777-16.869717 44.237055-37.607624 44.237055H308.609622c-20.725652 0-37.59537-19.839278-37.59537-44.237055 0-24.405947 16.869717-44.24114 37.59537-44.24114h363.666987c20.737907 0 37.611708 19.847447 37.611709 44.24114z m-37.611709-85.087913H308.609622c-43.256732 0-78.442142 38.171309-78.442142 85.087913 0 46.908434 35.18541 85.083828 78.442142 85.083827h363.671072c43.260817 0 78.454396-38.175394 78.454396-85.083827 0-22.245152-7.91202-43.313918-22.26966-59.313599-14.921326-16.612382-34.874975-25.774314-56.188821-25.774314z" fill="#6E6E96" /><path d="M368.356197 844.931833l-24.508064 117.798008h-39.899128l27.59608-117.798008zM349.064266 684.935024H535.840219v60.338853H349.064266z" fill="#F0B78D" /><path d="M726.43943 684.935024h-106.197525v60.351107H273.620277v36.296442h362.960338v-8.851496h89.858815z" fill="#6E6E96" opacity=".15" /></svg>