<svg class="svg-icon" style="width: 1em;height: 1em;vertical-align: middle;fill: currentColor;overflow: hidden;" viewBox="0 0 1024 1024" version="1.1" xmlns="http://www.w3.org/2000/svg"><path d="M511.999 512.002m-511.998 0a511.998 511.998 0 1 0 1023.996 0 511.998 511.998 0 1 0-1023.996 0Z" fill="#CDCCCA" /><path d="M511.999 512.002m-407.00441 0a407.00441 407.00441 0 1 0 814.00882 0 407.00441 407.00441 0 1 0-814.00882 0Z" fill="#E8E9EC" /><path d="M609.466619 759.113035c-2.56199-14.151945-9.949961-28.375889-23.663907-41.491838a194.349241 194.349241 0 0 1-6.463975-6.507975c0.953996-2.769989 1.491994-5.589978 1.491994-8.459967 0-14.799942-13.139949-28.397889-35.085863-39.151847-31.191878-60.489764-35.88586-137.387463-21.077917-211.109175 11.707954-7.375971 18.475928-16.061937 18.475927-25.371901 0-5.921977-2.747989-11.593955-7.753969-16.839934a0.399998 0.399998 0 0 0 0.006-0.028c2.44999-3.733985 3.749985-7.62797 3.749985-11.641955 0-11.849954-11.329956-22.657911-29.975883-30.901879 34.827864-26.995895 57.269776-69.20773 57.269776-116.685544 0-81.507682-66.073742-147.579424-147.577423-147.579424-81.507682 0-147.581424 66.071742-147.581424 147.579424 0 47.475815 22.441912 89.68965 57.269777 116.685544-18.643927 8.243968-29.975883 19.051926-29.975883 30.901879 0 4.013984 1.303995 7.907969 3.745985 11.625955l0.012 0.042c-5.00398 5.24598-7.75397 10.917957-7.75397 16.839934 0 9.307964 6.769974 17.99593 18.475928 25.371901 14.809942 73.719712 10.11596 150.619412-21.075918 211.109175-21.943914 10.753958-35.087863 24.351905-35.087862 39.151847 0 2.871989 0.539998 5.695978 1.493994 8.459967a202.23721 202.23721 0 0 1-6.461975 6.507975c-13.713946 13.117949-21.105918 27.339893-23.663908 41.491838-20.949918 13.245948-33.039871 28.843887-33.039871 45.539822v24.261905c0 48.065812 100.127609 87.03566 223.643127 87.03566 123.511518 0 223.643126-38.967848 223.643126-87.03566v-24.261905c0.002-16.693935-12.089953-32.287874-33.037871-45.537822z" fill="#CDCCCA" /><path d="M721.770181 776.402967c-26.993895-36.257858-112.949559-62.769755-214.823161-62.769755s-187.829266 26.511896-214.825161 62.769755h-8.817966v24.261905c0 48.065812 100.127609 87.03166 223.643127 87.03166s223.643126-38.963848 223.643126-87.03166v-24.261905h-8.819965z" fill="#323232" /><path d="M283.303893 776.402967a223.643126 87.03166 0 1 0 447.286253 0 223.643126 87.03166 0 1 0-447.286253 0Z" fill="#494A4A" /><path d="M332.099703 776.402967a174.847317 68.041734 0 1 0 349.694634 0 174.847317 68.041734 0 1 0-349.694634 0Z" fill="#323232" /><path d="M673.886368 689.373307c-78.327694-74.897707-84.60167-207.073191-46.657818-319.112753H386.65949c37.947852 112.039562 31.671876 244.213046-46.655818 319.112753-52.917793 50.603802-11.867954 117.75154 38.781848 133.307479l128.1595-46.277819 128.159499 46.277819c50.649802-15.555939 91.699642-82.703677 38.781849-133.307479z" fill="#323232" /><path d="M344.973652 674.403366a161.971367 63.029754 0 1 0 323.942735 0 161.971367 63.029754 0 1 0-323.942735 0Z" fill="#323232" /><path d="M506.94702 732.403139c-74.605709 0-150.129414-19.921922-150.129414-57.999773a9.999961 9.999961 0 1 1 19.999922 0c0 15.493939 50.693802 37.999852 130.129492 37.999851a9.999961 9.999961 0 1 1 0 19.999922z" fill="#494A4A" /><path d="M382.661505 398.772442a124.283515 48.363811 0 1 0 248.567029 0 124.283515 48.363811 0 1 0-248.567029 0Z" fill="#323232" /><path d="M506.94702 439.248284c-53.491791 0-110.343569-14.185945-110.343569-40.475842a5.999977 5.999977 0 1 1 11.999953 0c0 11.889954 37.413854 28.475889 98.343616 28.475889a5.999977 5.999977 0 1 1 0 11.999953z" fill="#494A4A" /><path d="M386.65749 370.260554a120.28753 46.807817 0 1 0 240.57506 0 120.28753 46.807817 0 1 0-240.57506 0Z" fill="#323232" /><path d="M506.94702 222.67513m-147.581424 0a147.581424 147.581424 0 1 0 295.162847 0 147.581424 147.581424 0 1 0-295.162847 0Z" fill="#323232" /><path d="M399.965438 232.675091a9.999961 9.999961 0 0 1-9.999961-9.999961c0-64.503748 52.477795-116.979543 116.979543-116.979543a9.999961 9.999961 0 1 1 0 19.999922c-53.475791 0-96.979621 43.50583-96.979621 96.979621a9.999961 9.999961 0 0 1-9.999961 9.999961z" fill="#494A4A" /></svg>